<mxfile host="app.diagrams.net" modified="2024-04-20T01:09:57.478Z" agent="Mozilla/5.0 (Windows NT 10.0; WOW64; x64) AppleWebKit/537.36 (KHTML, like Gecko) Chrome/113.0.5666.197 Safari/537.36" etag="_7ftFmHJHIviG7UeKNl7" version="24.2.5" type="device">
  <diagram name="Page-1" id="j-A_xAbqHclrrXz6uEDh">
    <mxGraphModel dx="1048" dy="620" grid="1" gridSize="10" guides="1" tooltips="1" connect="1" arrows="1" fold="1" page="1" pageScale="1" pageWidth="850" pageHeight="1100" math="1" shadow="0">
      <root>
        <mxCell id="0" />
        <mxCell id="1" parent="0" />
        <mxCell id="RcE-jef6YI-3A4wxZN4y-1" value="" style="ellipse;whiteSpace=wrap;html=1;strokeWidth=2;" parent="1" vertex="1">
          <mxGeometry x="270" y="140" width="140" height="270" as="geometry" />
        </mxCell>
        <mxCell id="XcnWXQcz65CTHHFqFZTV-2" value="" style="endArrow=none;html=1;rounded=0;entryX=1;entryY=0;entryDx=0;entryDy=0;exitX=0;exitY=0;exitDx=0;exitDy=0;strokeWidth=2;" parent="1" source="RcE-jef6YI-3A4wxZN4y-1" target="RcE-jef6YI-3A4wxZN4y-1" edge="1">
          <mxGeometry width="50" height="50" relative="1" as="geometry">
            <mxPoint x="280" y="210" as="sourcePoint" />
            <mxPoint x="330" y="160" as="targetPoint" />
          </mxGeometry>
        </mxCell>
        <mxCell id="XcnWXQcz65CTHHFqFZTV-3" value="" style="endArrow=none;html=1;rounded=0;exitX=0.032;exitY=0.334;exitDx=0;exitDy=0;exitPerimeter=0;strokeWidth=2;entryX=0.958;entryY=0.297;entryDx=0;entryDy=0;entryPerimeter=0;" parent="1" target="RcE-jef6YI-3A4wxZN4y-1" edge="1">
          <mxGeometry width="50" height="50" relative="1" as="geometry">
            <mxPoint x="276.1299999999999" y="220.27000000000007" as="sourcePoint" />
            <mxPoint x="402" y="220" as="targetPoint" />
          </mxGeometry>
        </mxCell>
        <mxCell id="XcnWXQcz65CTHHFqFZTV-4" value="" style="endArrow=none;html=1;rounded=0;entryX=1;entryY=0.5;entryDx=0;entryDy=0;exitX=0;exitY=0.5;exitDx=0;exitDy=0;strokeWidth=2;" parent="1" source="RcE-jef6YI-3A4wxZN4y-1" target="RcE-jef6YI-3A4wxZN4y-1" edge="1">
          <mxGeometry width="50" height="50" relative="1" as="geometry">
            <mxPoint x="270" y="260" as="sourcePoint" />
            <mxPoint x="392" y="260" as="targetPoint" />
          </mxGeometry>
        </mxCell>
        <mxCell id="XcnWXQcz65CTHHFqFZTV-6" value="" style="endArrow=none;html=1;rounded=0;entryX=1;entryY=0;entryDx=0;entryDy=0;exitX=0;exitY=0;exitDx=0;exitDy=0;strokeWidth=2;" parent="1" edge="1">
          <mxGeometry width="50" height="50" relative="1" as="geometry">
            <mxPoint x="291" y="370" as="sourcePoint" />
            <mxPoint x="389" y="370" as="targetPoint" />
          </mxGeometry>
        </mxCell>
        <mxCell id="XcnWXQcz65CTHHFqFZTV-7" value="" style="endArrow=none;html=1;rounded=0;exitX=0.032;exitY=0.334;exitDx=0;exitDy=0;exitPerimeter=0;strokeWidth=2;entryX=0.958;entryY=0.297;entryDx=0;entryDy=0;entryPerimeter=0;" parent="1" edge="1">
          <mxGeometry width="50" height="50" relative="1" as="geometry">
            <mxPoint x="276.0699999999999" y="330.2700000000001" as="sourcePoint" />
            <mxPoint x="403.94" y="330" as="targetPoint" />
          </mxGeometry>
        </mxCell>
        <mxCell id="XcnWXQcz65CTHHFqFZTV-9" value="`\tilde{p} = 0.1`" style="text;html=1;align=center;verticalAlign=middle;whiteSpace=wrap;rounded=0;" parent="1" vertex="1">
          <mxGeometry x="280" y="374" width="120" height="30" as="geometry" />
        </mxCell>
        <mxCell id="XcnWXQcz65CTHHFqFZTV-10" value="`\tilde{p} = 0.25`" style="text;html=1;align=center;verticalAlign=middle;whiteSpace=wrap;rounded=0;" parent="1" vertex="1">
          <mxGeometry x="280" y="337" width="120" height="30" as="geometry" />
        </mxCell>
        <mxCell id="XcnWXQcz65CTHHFqFZTV-11" value="`\tilde{p} = 0.4`" style="text;html=1;align=center;verticalAlign=middle;whiteSpace=wrap;rounded=0;" parent="1" vertex="1">
          <mxGeometry x="280" y="290" width="120" height="30" as="geometry" />
        </mxCell>
        <mxCell id="XcnWXQcz65CTHHFqFZTV-12" value="`\tilde{p} = 0.6`" style="text;html=1;align=center;verticalAlign=middle;whiteSpace=wrap;rounded=0;" parent="1" vertex="1">
          <mxGeometry x="280" y="233" width="120" height="30" as="geometry" />
        </mxCell>
        <mxCell id="XcnWXQcz65CTHHFqFZTV-13" value="`\tilde{p} = 0.75`" style="text;html=1;align=center;verticalAlign=middle;whiteSpace=wrap;rounded=0;" parent="1" vertex="1">
          <mxGeometry x="280" y="185" width="120" height="30" as="geometry" />
        </mxCell>
        <mxCell id="XcnWXQcz65CTHHFqFZTV-14" value="`\tilde{p} = 0.9`" style="text;html=1;align=center;verticalAlign=middle;whiteSpace=wrap;rounded=0;" parent="1" vertex="1">
          <mxGeometry x="280" y="145" width="120" height="30" as="geometry" />
        </mxCell>
      </root>
    </mxGraphModel>
  </diagram>
</mxfile>
